<svg id="Capa_1" enable-background="new 0 0 515.556 515.556" height="512" viewBox="0 0 515.556 515.556" width="512" xmlns="http://www.w3.org/2000/svg"><path d="m257.778 0-193.334 73.651v184.127c0 147.301 77.334 202.54 193.333 257.778 115.999-55.238 193.333-110.477 193.333-257.778v-184.127c.001 0-193.332-73.651-193.332-73.651zm128.889 257.778c0 50.485-10.329 85.754-31.974 114.247-63.06-21.498-130.897-23.148-196.293-3.579-19.885-27.884-29.51-62.224-29.51-110.668v-139.682l128.889-49.12 128.889 49.12c-.001 0-.001 139.682-.001 139.682z"/><path d="m324.999 157.202c37.751 37.751 37.751 98.957 0 136.707s-98.957 37.751-136.707 0-37.751-98.957 0-136.707 98.956-37.751 136.707 0"/></svg>